<mxfile host="app.diagrams.net" agent="Mozilla/5.0 (Windows NT 10.0; Win64; x64) AppleWebKit/537.36 (KHTML, like Gecko) Chrome/134.0.0.0 Safari/537.36" version="26.1.3">
  <diagram name="Página-1" id="tJGDnI5JCQ87OuUdVsOm">
    <mxGraphModel dx="1966" dy="766" grid="1" gridSize="10" guides="1" tooltips="1" connect="1" arrows="1" fold="1" page="1" pageScale="1" pageWidth="827" pageHeight="1169" math="0" shadow="0">
      <root>
        <mxCell id="0" />
        <mxCell id="1" parent="0" />
        <mxCell id="hOlTYphmVJ19pUIRwXYn-1" value="" style="ellipse;whiteSpace=wrap;html=1;" vertex="1" parent="1">
          <mxGeometry x="350" y="40" width="200" height="100" as="geometry" />
        </mxCell>
        <mxCell id="hOlTYphmVJ19pUIRwXYn-2" value="&lt;b&gt;Notificación&lt;/b&gt;" style="text;html=1;align=center;verticalAlign=middle;whiteSpace=wrap;rounded=0;" vertex="1" parent="1">
          <mxGeometry x="420" y="40" width="60" height="30" as="geometry" />
        </mxCell>
        <mxCell id="hOlTYphmVJ19pUIRwXYn-4" value="Mensaje: string&lt;div&gt;Destinario: string&lt;/div&gt;" style="text;html=1;align=center;verticalAlign=middle;whiteSpace=wrap;rounded=0;" vertex="1" parent="1">
          <mxGeometry x="393" y="65" width="110" height="30" as="geometry" />
        </mxCell>
        <mxCell id="hOlTYphmVJ19pUIRwXYn-5" value="ENVIARNOTIFICACION()" style="text;html=1;align=center;verticalAlign=middle;whiteSpace=wrap;rounded=0;" vertex="1" parent="1">
          <mxGeometry x="393" y="100" width="110" height="30" as="geometry" />
        </mxCell>
        <mxCell id="hOlTYphmVJ19pUIRwXYn-7" value="" style="endArrow=classic;html=1;rounded=0;" edge="1" parent="1">
          <mxGeometry width="50" height="50" relative="1" as="geometry">
            <mxPoint x="379" y="125" as="sourcePoint" />
            <mxPoint x="320" y="200" as="targetPoint" />
          </mxGeometry>
        </mxCell>
        <mxCell id="hOlTYphmVJ19pUIRwXYn-8" value="" style="ellipse;whiteSpace=wrap;html=1;" vertex="1" parent="1">
          <mxGeometry x="180" y="200" width="200" height="170" as="geometry" />
        </mxCell>
        <mxCell id="hOlTYphmVJ19pUIRwXYn-9" value="Enviar a -&amp;gt;" style="text;html=1;align=center;verticalAlign=middle;whiteSpace=wrap;rounded=0;" vertex="1" parent="1">
          <mxGeometry x="464" y="140" width="110" height="30" as="geometry" />
        </mxCell>
        <mxCell id="hOlTYphmVJ19pUIRwXYn-10" value="&lt;b&gt;Paciente&lt;/b&gt;" style="text;html=1;align=center;verticalAlign=middle;whiteSpace=wrap;rounded=0;" vertex="1" parent="1">
          <mxGeometry x="250" y="200" width="60" height="30" as="geometry" />
        </mxCell>
        <mxCell id="hOlTYphmVJ19pUIRwXYn-11" value="Nombre: string()&lt;div&gt;DNI: string()&lt;/div&gt;&lt;div&gt;FechaNacimiento: Date()&lt;/div&gt;&lt;div&gt;Telefono: string()&lt;/div&gt;&lt;div&gt;Email: string()&lt;/div&gt;&lt;div&gt;historialturno: List()&lt;/div&gt;" style="text;html=1;align=center;verticalAlign=middle;whiteSpace=wrap;rounded=0;" vertex="1" parent="1">
          <mxGeometry x="202.5" y="230" width="155" height="100" as="geometry" />
        </mxCell>
        <mxCell id="hOlTYphmVJ19pUIRwXYn-12" value="&lt;b&gt;obtenerHistorial()&lt;/b&gt;" style="text;html=1;align=center;verticalAlign=middle;whiteSpace=wrap;rounded=0;" vertex="1" parent="1">
          <mxGeometry x="230" y="330" width="110" height="30" as="geometry" />
        </mxCell>
        <mxCell id="hOlTYphmVJ19pUIRwXYn-13" value="" style="ellipse;whiteSpace=wrap;html=1;" vertex="1" parent="1">
          <mxGeometry x="414" y="200" width="200" height="170" as="geometry" />
        </mxCell>
        <mxCell id="hOlTYphmVJ19pUIRwXYn-14" value="&lt;b&gt;ProfesionalSalud&lt;/b&gt;" style="text;html=1;align=center;verticalAlign=middle;whiteSpace=wrap;rounded=0;" vertex="1" parent="1">
          <mxGeometry x="484" y="206" width="60" height="30" as="geometry" />
        </mxCell>
        <mxCell id="hOlTYphmVJ19pUIRwXYn-15" value="Nombre: string()&lt;div&gt;Matricula: string()&lt;/div&gt;&lt;div&gt;Especialidad:&amp;nbsp;&lt;span style=&quot;background-color: transparent; color: light-dark(rgb(0, 0, 0), rgb(255, 255, 255));&quot;&gt;string()&lt;/span&gt;&lt;/div&gt;&lt;div&gt;HorarioAtención:&amp;nbsp;&lt;span style=&quot;background-color: transparent; color: light-dark(rgb(0, 0, 0), rgb(255, 255, 255));&quot;&gt;string()&lt;/span&gt;&lt;/div&gt;&lt;div&gt;&lt;br&gt;&lt;/div&gt;" style="text;html=1;align=center;verticalAlign=middle;whiteSpace=wrap;rounded=0;" vertex="1" parent="1">
          <mxGeometry x="436.5" y="250" width="155" height="70" as="geometry" />
        </mxCell>
        <mxCell id="hOlTYphmVJ19pUIRwXYn-16" value="&lt;b&gt;consultarDisponibilidad() &lt;/b&gt;boolean" style="text;html=1;align=center;verticalAlign=middle;whiteSpace=wrap;rounded=0;" vertex="1" parent="1">
          <mxGeometry x="459" y="320" width="110" height="30" as="geometry" />
        </mxCell>
        <mxCell id="hOlTYphmVJ19pUIRwXYn-17" value="" style="endArrow=classic;html=1;rounded=0;entryX=0.25;entryY=0;entryDx=0;entryDy=0;exitX=0.67;exitY=0.971;exitDx=0;exitDy=0;exitPerimeter=0;" edge="1" parent="1" source="hOlTYphmVJ19pUIRwXYn-1" target="hOlTYphmVJ19pUIRwXYn-14">
          <mxGeometry width="50" height="50" relative="1" as="geometry">
            <mxPoint x="480" y="140" as="sourcePoint" />
            <mxPoint x="330" y="210" as="targetPoint" />
          </mxGeometry>
        </mxCell>
        <mxCell id="hOlTYphmVJ19pUIRwXYn-19" value="Enviar a -&amp;gt;" style="text;html=1;align=center;verticalAlign=middle;whiteSpace=wrap;rounded=0;" vertex="1" parent="1">
          <mxGeometry x="326.5" y="160" width="110" height="30" as="geometry" />
        </mxCell>
        <mxCell id="hOlTYphmVJ19pUIRwXYn-21" value="" style="ellipse;whiteSpace=wrap;html=1;" vertex="1" parent="1">
          <mxGeometry x="650" y="200" width="300" height="170" as="geometry" />
        </mxCell>
        <mxCell id="hOlTYphmVJ19pUIRwXYn-22" value="&lt;b&gt;GestorTurnos&lt;/b&gt;" style="text;html=1;align=center;verticalAlign=middle;whiteSpace=wrap;rounded=0;" vertex="1" parent="1">
          <mxGeometry x="767" y="200" width="60" height="30" as="geometry" />
        </mxCell>
        <mxCell id="hOlTYphmVJ19pUIRwXYn-23" value="Turnos: List()&lt;div&gt;&lt;br&gt;&lt;div&gt;AsignarTurno (paciente,medico, fecha, hora)&lt;/div&gt;&lt;div&gt;CancelarTurno(turno)&lt;/div&gt;&lt;div&gt;ModificarTurno(turno,nuevaFecha,nuevaHora)&lt;/div&gt;&lt;div&gt;&lt;br&gt;&lt;/div&gt;&lt;/div&gt;" style="text;html=1;align=center;verticalAlign=middle;whiteSpace=wrap;rounded=0;" vertex="1" parent="1">
          <mxGeometry x="660" y="250" width="280" height="70" as="geometry" />
        </mxCell>
        <mxCell id="hOlTYphmVJ19pUIRwXYn-25" value="" style="endArrow=classic;html=1;rounded=0;entryX=0.598;entryY=0.993;entryDx=0;entryDy=0;entryPerimeter=0;exitX=0.071;exitY=0.206;exitDx=0;exitDy=0;exitPerimeter=0;" edge="1" parent="1" source="hOlTYphmVJ19pUIRwXYn-26" target="hOlTYphmVJ19pUIRwXYn-8">
          <mxGeometry width="50" height="50" relative="1" as="geometry">
            <mxPoint x="370" y="470" as="sourcePoint" />
            <mxPoint x="350" y="505" as="targetPoint" />
          </mxGeometry>
        </mxCell>
        <mxCell id="hOlTYphmVJ19pUIRwXYn-26" value="" style="ellipse;whiteSpace=wrap;html=1;" vertex="1" parent="1">
          <mxGeometry x="390" y="480" width="224" height="210" as="geometry" />
        </mxCell>
        <mxCell id="hOlTYphmVJ19pUIRwXYn-27" value="&lt;b&gt;TURNO&lt;/b&gt;" style="text;html=1;align=center;verticalAlign=middle;whiteSpace=wrap;rounded=0;" vertex="1" parent="1">
          <mxGeometry x="464" y="486" width="60" height="30" as="geometry" />
        </mxCell>
        <mxCell id="hOlTYphmVJ19pUIRwXYn-28" value="Fecha: date()&lt;div&gt;&lt;div&gt;Hora: time()&lt;/div&gt;&lt;div&gt;Estado:&amp;nbsp;&lt;span style=&quot;background-color: transparent; color: light-dark(rgb(0, 0, 0), rgb(255, 255, 255));&quot;&gt;string()&lt;/span&gt;&lt;/div&gt;&lt;div&gt;&lt;span style=&quot;background-color: transparent; color: light-dark(rgb(0, 0, 0), rgb(255, 255, 255));&quot;&gt;Paciente: Paciente&lt;/span&gt;&lt;/div&gt;&lt;div&gt;&lt;span style=&quot;background-color: transparent; color: light-dark(rgb(0, 0, 0), rgb(255, 255, 255));&quot;&gt;Medico: ProfesionalSalud&lt;/span&gt;&lt;/div&gt;&lt;div&gt;&lt;span style=&quot;background-color: transparent; color: light-dark(rgb(0, 0, 0), rgb(255, 255, 255));&quot;&gt;Motivo: string()&lt;/span&gt;&lt;/div&gt;&lt;div&gt;Observaciones:&amp;nbsp;&lt;span style=&quot;background-color: transparent; color: light-dark(rgb(0, 0, 0), rgb(255, 255, 255));&quot;&gt;string()&lt;/span&gt;&lt;/div&gt;&lt;div&gt;&lt;br&gt;&lt;/div&gt;&lt;/div&gt;" style="text;html=1;align=center;verticalAlign=middle;whiteSpace=wrap;rounded=0;" vertex="1" parent="1">
          <mxGeometry x="424.5" y="550" width="155" height="70" as="geometry" />
        </mxCell>
        <mxCell id="hOlTYphmVJ19pUIRwXYn-29" value="&lt;b&gt;confirmarTurno()&lt;/b&gt;&lt;div&gt;&lt;b&gt;cancelarTurno()&lt;/b&gt;&lt;/div&gt;" style="text;html=1;align=center;verticalAlign=middle;whiteSpace=wrap;rounded=0;" vertex="1" parent="1">
          <mxGeometry x="440" y="630" width="110" height="30" as="geometry" />
        </mxCell>
        <mxCell id="hOlTYphmVJ19pUIRwXYn-30" value="" style="endArrow=classic;html=1;rounded=0;exitX=0.25;exitY=0;exitDx=0;exitDy=0;entryX=0.5;entryY=1;entryDx=0;entryDy=0;" edge="1" parent="1" source="hOlTYphmVJ19pUIRwXYn-27" target="hOlTYphmVJ19pUIRwXYn-13">
          <mxGeometry width="50" height="50" relative="1" as="geometry">
            <mxPoint x="439" y="525" as="sourcePoint" />
            <mxPoint x="310" y="379" as="targetPoint" />
          </mxGeometry>
        </mxCell>
        <mxCell id="hOlTYphmVJ19pUIRwXYn-31" value="" style="endArrow=classic;html=1;rounded=0;exitX=0.5;exitY=1;exitDx=0;exitDy=0;entryX=0.972;entryY=0.269;entryDx=0;entryDy=0;entryPerimeter=0;" edge="1" parent="1" source="hOlTYphmVJ19pUIRwXYn-21" target="hOlTYphmVJ19pUIRwXYn-26">
          <mxGeometry width="50" height="50" relative="1" as="geometry">
            <mxPoint x="509" y="496" as="sourcePoint" />
            <mxPoint x="524" y="380" as="targetPoint" />
          </mxGeometry>
        </mxCell>
        <mxCell id="hOlTYphmVJ19pUIRwXYn-32" value="Administra" style="text;html=1;align=center;verticalAlign=middle;whiteSpace=wrap;rounded=0;" vertex="1" parent="1">
          <mxGeometry x="717" y="420" width="110" height="30" as="geometry" />
        </mxCell>
        <mxCell id="hOlTYphmVJ19pUIRwXYn-33" value="1*.." style="text;html=1;align=center;verticalAlign=middle;whiteSpace=wrap;rounded=0;" vertex="1" parent="1">
          <mxGeometry x="516" y="400" width="34" height="30" as="geometry" />
        </mxCell>
        <mxCell id="hOlTYphmVJ19pUIRwXYn-37" value="1*.." style="text;html=1;align=center;verticalAlign=middle;whiteSpace=wrap;rounded=0;" vertex="1" parent="1">
          <mxGeometry x="346" y="410" width="34" height="30" as="geometry" />
        </mxCell>
      </root>
    </mxGraphModel>
  </diagram>
</mxfile>
